<?xml version="1.0" encoding="UTF-8" standalone="no"?>
<svg width="12px" height="12px" viewBox="0 0 12 12" version="1.1" xmlns="http://www.w3.org/2000/svg" xmlns:xlink="http://www.w3.org/1999/xlink">
    <!-- Generator: Sketch 3.8.1 (29687) - http://www.bohemiancoding.com/sketch -->
    <title>i-email</title>
    <desc>Created with Sketch.</desc>
    <defs></defs>
    <g id="Symbols" stroke="none" stroke-width="1" fill="none" fill-rule="evenodd">
        <g id="i-email" fill="#8E8E93">
            <path d="M12.0000143,4.0401822 C11.7991212,4.2611646 11.5714424,4.45536126 11.3303706,4.62277218 C10.2120657,5.37946951 9.0870644,6.14286327 7.99554525,6.93304279 C7.43304458,7.34822185 6.73661517,7.85715103 6.00670359,7.85715103 L6.00000715,7.85715103 L5.99331072,7.85715103 C5.26339913,7.85715103 4.56696973,7.34822185 4.00446906,6.93304279 C2.9129499,6.13616684 1.78794856,5.37946951 0.676340092,4.62277218 C0.428571939,4.45536126 0.200893097,4.2611646 0,4.0401822 L0,9.35715282 C0,9.94643924 0.482143432,10.4285827 1.07142985,10.4285827 L10.9285845,10.4285827 C11.5178709,10.4285827 12.0000143,9.94643924 12.0000143,9.35715282 L12.0000143,4.0401822 Z M12.0000143,2.07142985 C12.0000143,1.48214343 11.5111744,1 10.9285845,1 L1.07142985,1 C0.354911137,1 0,1.56250067 0,2.21875145 C0,2.82812718 0.676340092,3.58482451 1.15178709,3.90625346 C2.18973475,4.62946861 3.24107529,5.35268376 4.27902296,6.08259534 C4.71429133,6.38393499 5.45089936,7.00000715 5.99331072,7.00000715 L6.00000715,7.00000715 L6.00670359,7.00000715 C6.54911495,7.00000715 7.28572297,6.38393499 7.72099135,6.08259534 C8.75893901,5.35268376 9.81027955,4.62946861 10.8549237,3.90625346 C11.4442101,3.49777083 12.0000143,2.82143074 12.0000143,2.07142985 L12.0000143,2.07142985 Z"></path>
        </g>
    </g>
</svg>