<?xml version="1.0" encoding="UTF-8" standalone="no"?>
<svg width="12px" height="12px" viewBox="0 0 12 12" version="1.1" xmlns="http://www.w3.org/2000/svg" xmlns:xlink="http://www.w3.org/1999/xlink">
    <!-- Generator: Sketch 3.8.1 (29687) - http://www.bohemiancoding.com/sketch -->
    <title>i-mobile</title>
    <desc>Created with Sketch.</desc>
    <defs></defs>
    <g id="Symbols" stroke="none" stroke-width="1" fill="none" fill-rule="evenodd">
        <g id="i-mobile" fill="#8E8E93">
            <path d="M9.14286208,10.2857265 C9.14286208,10.6785842 8.82143313,11.0000131 8.42857552,11.0000131 C8.0357179,11.0000131 7.71428895,10.6785842 7.71428895,10.2857265 C7.71428895,9.89286894 8.0357179,9.57143998 8.42857552,9.57143998 C8.82143313,9.57143998 9.14286208,9.89286894 9.14286208,10.2857265 L9.14286208,10.2857265 Z M11.0000072,8.85715342 C11.0000072,9.00893931 10.8660784,9.14286804 10.7142925,9.14286804 L6.14285851,9.14286804 C5.99107261,9.14286804 5.85714388,9.00893931 5.85714388,8.85715342 L5.85714388,2.57143164 C5.85714388,2.41964574 5.99107261,2.28571701 6.14285851,2.28571701 L10.7142925,2.28571701 C10.8660784,2.28571701 11.0000072,2.41964574 11.0000072,2.57143164 L11.0000072,8.85715342 Z M9.28571939,1.28571582 C9.28571939,1.36607306 9.22321932,1.42857313 9.14286208,1.42857313 L7.71428895,1.42857313 C7.63393171,1.42857313 7.57143164,1.36607306 7.57143164,1.28571582 C7.57143164,1.20535858 7.63393171,1.14285851 7.71428895,1.14285851 L9.14286208,1.14285851 C9.22321932,1.14285851 9.28571939,1.20535858 9.28571939,1.28571582 L9.28571939,1.28571582 Z M11.857151,1.14285851 C11.857151,0.51785776 11.3392933,0 10.7142925,0 L6.14285851,0 C5.51785776,0 5,0.51785776 5,1.14285851 L5,10.2857265 C5,10.9107273 5.51785776,11.4285851 6.14285851,11.4285851 L10.7142925,11.4285851 C11.3392933,11.4285851 11.857151,10.9107273 11.857151,10.2857265 L11.857151,1.14285851 Z"></path>
        </g>
    </g>
</svg>