<?xml version="1.0" encoding="UTF-8" standalone="no"?>
<svg width="12px" height="12px" viewBox="0 0 12 12" version="1.1" xmlns="http://www.w3.org/2000/svg" xmlns:xlink="http://www.w3.org/1999/xlink">
    <!-- Generator: Sketch 3.8.1 (29687) - http://www.bohemiancoding.com/sketch -->
    <title>i-pin</title>
    <desc>Created with Sketch.</desc>
    <defs></defs>
    <g id="Symbols" stroke="none" stroke-width="1" fill="none" fill-rule="evenodd">
        <g id="i-pin" fill="#8E8E93">
            <path d="M10,4 C10,5.1015625 9.1015625,6 8,6 C6.8984375,6 6,5.1015625 6,4 C6,2.8984375 6.8984375,2 8,2 C9.1015625,2 10,2.8984375 10,4 L10,4 Z M12,4 C12,1.7890625 10.2109375,0 8,0 C5.7890625,0 4,1.7890625 4,4 C4,4.4765625 4.0546875,4.96875 4.2578125,5.3984375 L7.109375,11.4453125 C7.265625,11.7890625 7.625,12 8,12 C8.375,12 8.734375,11.7890625 8.8984375,11.4453125 L11.7421875,5.3984375 C11.9453125,4.96875 12,4.4765625 12,4 L12,4 Z" id="ï"></path>
        </g>
    </g>
</svg>