<svg width="12" height="12" viewBox="0 0 12 12" xmlns="http://www.w3.org/2000/svg"><title>i-skype</title><path d="M9.164 7.305c0 1.586-1.531 2.32-3 2.32-1.758 0-3.226-.781-3.226-1.742 0-.43.242-.82.789-.82.836 0 .914 1.203 2.359 1.203.687 0 1.133-.305 1.133-.704 0-.5-.43-.578-1.125-.75l-1.14-.28c-1.141-.274-2.016-.743-2.016-2.055 0-1.586 1.57-2.172 2.921-2.172 1.477 0 2.97.586 2.97 1.484 0 .453-.306.852-.813.852-.758 0-.782-.899-2.008-.899-.688 0-1.125.188-1.125.602 0 .453.445.554 1.039.695l.812.188c1.11.25 2.43.718 2.43 2.078zM12 9c0-.688-.234-1.32-.625-1.828A5.498 5.498 0 0 0 4.828.625 2.988 2.988 0 0 0 3 0a3 3 0 0 0-3 3c0 .688.234 1.32.625 1.828a5.498 5.498 0 0 0 6.547 6.547C7.68 11.765 8.312 12 9 12a3 3 0 0 0 3-3z" fill="#8E8E93" fill-rule="evenodd"/></svg>