<?xml version="1.0" encoding="UTF-8" standalone="no"?>
<svg width="12px" height="12px" viewBox="0 0 12 12" version="1.1" xmlns="http://www.w3.org/2000/svg" xmlns:xlink="http://www.w3.org/1999/xlink">
    <!-- Generator: Sketch 3.8.1 (29687) - http://www.bohemiancoding.com/sketch -->
    <title>i-telephone</title>
    <desc>Created with Sketch.</desc>
    <defs></defs>
    <g id="Symbols" stroke="none" stroke-width="1" fill="none" fill-rule="evenodd">
        <g id="i-telephone" fill="#8E8E93">
            <path d="M12.0000131,8.68751036 C12.0000131,8.63282279 12.0000131,8.57813523 11.9765756,8.52344766 C11.921888,8.35938497 11.5390751,8.18750976 11.3828249,8.10938467 C10.9375118,7.85938437 10.4843863,7.61719658 10.0468858,7.35938377 C9.84376054,7.23438362 9.59376024,7.00000834 9.35157246,7.00000834 C8.87500939,7.00000834 8.17969606,8.41407253 7.75782056,8.41407253 C7.5468828,8.41407253 7.27344498,8.2187598 7.08594476,8.10938467 C5.66406806,7.32032123 4.67969189,6.33594505 3.89062845,4.91406836 C3.78125332,4.72656813 3.58594058,4.45313031 3.58594058,4.24219256 C3.58594058,3.82031705 5.00000477,3.12500373 5.00000477,2.64844066 C5.00000477,2.40625287 4.76562949,2.15625257 4.64062934,1.95312733 C4.38281653,1.51562681 4.14062874,1.06250127 3.89062845,0.617188236 C3.81250335,0.460938049 3.64062815,0.0781250931 3.47656545,0.0234375279 C3.42187789,0 3.36719032,0 3.31250276,0 C3.03125242,0 2.48437677,0.125000149 2.22656396,0.242187789 C1.84375101,0.406250484 1.59375071,0.843751006 1.39843797,1.19531392 C1.14843768,1.65625197 1,2.12500253 1,2.64844066 C1,3.37500402 1.29687535,4.03125481 1.53906314,4.6953181 C1.71093835,5.17188117 1.9218761,5.63281921 2.18750142,6.06250723 C3.00781489,7.39063381 4.6093793,8.99219822 5.93750589,9.8125117 C6.3671939,10.078137 6.82813195,10.2890748 7.30469502,10.46095 C7.96875831,10.7031378 8.62500909,11.0000131 9.35157246,11.0000131 C9.87501058,11.0000131 10.3437611,10.8515754 10.8046992,10.6015751 C11.1562621,10.4062624 11.5937626,10.1562621 11.7578253,9.77344915 C11.875013,9.51563634 12.0000131,8.96876069 12.0000131,8.68751036 L12.0000131,8.68751036 Z"></path>
        </g>
    </g>
</svg>