<svg width="189" height="68" viewBox="0 0 189 68" xmlns="http://www.w3.org/2000/svg"><title>logo</title><defs><linearGradient x1="58.003%" y1="42.342%" x2="32.098%" y2="68.964%" id="a"><stop stop-color="#068068" offset="0%"/><stop stop-color="#16A085" offset="100%"/></linearGradient></defs><g fill="none" fill-rule="evenodd"><path fill="#FFF" opacity=".8" d="M0 0h189v68H0z"/><path d="M23.584 37.272L40.943 7.898c3.52-5.957-5.457-11.213-8.977-5.256l-17.36 29.373c-3.52 5.958 5.457 11.214 8.978 5.257z" fill="url(#a)" transform="translate(0 14)"/><path d="M49.3 51.235c2.039 3.443 6.989 3.443 9.027 0l12.846-21.77 13.02 21.943c1.497 2.426 4.691 3.24 7.203 1.814 2.437-1.492 3.255-4.671 1.823-7.17l-17.533-29.46c-2.053-3.358-6.992-3.35-9.027.086L53.813 38.45 40.968 16.68c-1.483-2.504-4.674-3.328-7.118-1.901-2.514 1.476-3.342 4.653-1.91 7.084L49.3 51.235z" fill="#068068"/><path d="M39.926 53.827l-20.657.087c-2.855.012-5.196-2.3-5.208-5.184-.012-2.841 2.31-5.171 5.208-5.184l11.574-.048-8.27-13.995L9.697 51.27c-1.458 2.468-4.65 3.291-7.129 1.84A5.17 5.17 0 0 1 .72 46.015l17.358-29.373c2.014-3.407 6.964-3.407 8.978 0l17.358 29.373c.489.827.72 1.734.72 2.628a5.113 5.113 0 0 1-1.44 3.579c-.325.339-.702.64-1.128.889a5.202 5.202 0 0 1-2.64.716z" fill="#16A085"/><text font-family="RobotoSlab-Bold, Roboto Slab" font-size="18" font-weight="bold" fill="#16A085"><tspan x="99" y="33">AMontero </tspan> <tspan x="99" y="53">Abogados</tspan></text></g></svg>